<svg version="1.1" id="Icon_Set" xmlns="http://www.w3.org/2000/svg" x="0" y="0" viewBox="0 0 512 512" style="enable-background:new 0 0 512 512" xml:space="preserve"><style>.st0{fill:#fff}.st1{fill:#7dac51}.st2{fill:#5b7c31}.st3{fill:#463218}</style><g id="GREEN_SPROUT"><path d="M351.7 376.3c-10.6-10.6-27.7-10.6-38.3 0s-27.7 10.6-38.3 0c-10.6-10.6-27.7-10.6-38.3 0-10.6 10.6-27.7 10.6-38.3 0-10.6-10.6-27.7-10.6-38.3 0v-57.4c10.6-10.6 27.7-10.6 38.3 0 10.6 10.6 27.7 10.6 38.3 0 10.6-10.6 27.7-10.6 38.3 0 10.6 10.6 27.7 10.6 38.3 0s27.7-10.6 38.3 0v57.4z" style="fill:#fe8e46"/><path d="M313.4 318.9c-10.6 10.6-27.7 10.6-38.3 0-10.6-10.6-27.7-10.6-38.3 0-10.6 10.6-27.7 10.6-38.3 0s-27.7-10.6-38.3 0v29.5c10.6-10.6 27.7-10.6 38.3 0s27.7 10.6 38.3 0c10.6-10.6 27.7-10.6 38.3 0 10.6 10.6 27.7 10.6 38.3 0s27.7-10.6 38.3 0v-29.5c-10.6-10.6-27.7-10.6-38.3 0z" style="fill:#e56823"/><path class="st1" d="M182.8 159.4c15.5-7.7 34.6-7.2 50.1 3s23.4 27.6 22.4 44.8c-15.5 7.7-34.6 7.2-50.1-3-15.4-10.1-23.4-27.5-22.4-44.8z"/><path class="st2" d="M255.3 207.3c-15.5 7.7-34.6 7.2-50.1-3s-23.4-27.6-22.4-44.9"/><path class="st1" d="M347.6 134.5c-19.7-9.8-43.9-9.2-63.6 3.8-19.7 13-29.8 35-28.5 57 19.7 9.8 43.9 9.2 63.6-3.8 19.7-13 29.8-35 28.5-57z"/><path class="st2" d="M347.6 134.5s-43.9-9.2-63.6 3.8c-19.7 13-28.5 57-28.5 57l92.1-60.8z"/><path class="st3" d="M284 209c-10.8 0-21.6-2.5-31.6-7.4-2.2-1.1-3.7-3.4-3.9-5.9-1.5-25.1 10.6-49.4 31.6-63.2 21-13.9 48-15.5 70.6-4.2 2.2 1.1 3.7 3.4 3.9 5.9 1.5 25.1-10.6 49.4-31.6 63.2-11.8 7.6-25.4 11.6-39 11.6zm-21.6-18.3c17.3 7.1 37.2 5.2 52.8-5.1 15.7-10.3 25.2-27.9 25.4-46.6-17.3-7.1-37.2-5.2-52.8 5.1-15.6 10.4-25.1 28-25.4 46.6z"/><path class="st3" d="M232.9 219.6c-11 0-22-3.2-31.5-9.4-17-11.2-26.8-30.8-25.6-51.1.1-2.5 1.6-4.7 3.9-5.9 18.2-9.1 40.1-7.8 57 3.4 17 11.2 26.8 30.8 25.6 51.1-.1 2.5-1.6 4.7-3.9 5.9-8 4-16.8 6-25.5 6zM189.8 164c.5 13.8 7.7 26.7 19.3 34.4 11.6 7.7 26.3 9.2 39.3 4.3-.5-13.8-7.7-26.7-19.3-34.4-11.7-7.7-26.4-9.2-39.3-4.3z"/><path class="st3" d="M255.4 347.4c-3.9 0-7-3.1-7-7V195.3c0-3.9 3.1-7 7-7s7 3.1 7 7v145.2c0 3.8-3.1 6.9-7 6.9z"/><g><path class="st3" d="M294.3 391.2c-8.7 0-17.4-3.3-24.1-10-3.8-3.8-8.8-5.9-14.2-5.9s-10.4 2.1-14.2 5.9c-13.3 13.3-34.9 13.3-48.2 0-7.8-7.8-20.6-7.8-28.4 0-2 2-5 2.6-7.6 1.5-2.6-1.1-4.3-3.6-4.3-6.5v-57.4c0-1.9.7-3.6 2-4.9 6.4-6.4 15-10 24.1-10 9.1 0 17.7 3.5 24.1 10 7.8 7.8 20.6 7.8 28.4 0 6.4-6.4 15-10 24.1-10s17.7 3.5 24.1 10c7.8 7.8 20.6 7.8 28.4 0 6.4-6.4 15-10 24.1-10 9.1 0 17.7 3.5 24.1 10 1.3 1.3 2 3.1 2 4.9v57.4c0 2.8-1.7 5.4-4.3 6.5-2.6 1.1-5.6.5-7.6-1.5-7.8-7.8-20.6-7.8-28.4 0-6.7 6.7-15.4 10-24.1 10zM256 361.3c9.1 0 17.7 3.5 24.1 10 7.8 7.8 20.6 7.8 28.4 0 6.4-6.4 15-10 24.1-10 4.2 0 8.3.8 12.1 2.2V322c-7.9-6-19.2-5.4-26.3 1.8-6.4 6.4-15 10-24.1 10-9.1 0-17.7-3.5-24.1-10-3.8-3.8-8.8-5.9-14.2-5.9s-10.4 2.1-14.2 5.9c-6.4 6.4-15 10-24.1 10-9.1 0-17.7-3.5-24.1-10-7.2-7.2-18.5-7.8-26.3-1.8v41.5c3.8-1.5 7.9-2.2 12.1-2.2 9.1 0 17.7 3.5 24.1 10 7.8 7.8 20.6 7.8 28.4 0 6.4-6.4 15-10 24.1-10z"/></g><g><path transform="rotate(-33.86 307.504 167.736)" class="st0" d="M296.7 162.3h21.6v10.8h-21.6z"/><path transform="rotate(-33.86 325.313 155.783)" class="st0" d="M321.2 150.4h8.2v10.8h-8.2z"/></g></g></svg>