<svg width="256px" height="256px" viewBox="0 0 64.00 64.00" xmlns="http://www.w3.org/2000/svg" fill="#000000" stroke="#000000" stroke-width="0.00064" transform="matrix(1, 0, 0, 1, 0, 0)rotate(0)"><g id="SVGRepo_bgCarrier" stroke-width="0"><rect x="0" y="0" width="64.00" height="64.00" rx="32" fill="#86e8ec" strokewidth="0"></rect></g><g id="SVGRepo_tracerCarrier" stroke-linecap="round" stroke-linejoin="round" stroke="#CCCCCC" stroke-width="1.024"></g><g id="SVGRepo_iconCarrier"> <defs> <style>.cls-1{fill:#e5936b;}.cls-2{fill:#e17c46;}.cls-3{fill:#f6e782;}.cls-4{fill:#94d8e5;}.cls-5{fill:#748a95;}.cls-6{fill:#efc89d;}.cls-7{fill:#ebb87f;}.cls-8{fill:#252b48;}</style> </defs> <g data-name="Book Rack" id="Book_Rack"> <path class="cls-1" d="M20.35,8a3,3,0,0,0-3,3V39.83L32,43.72l14.65-3.89V11a3,3,0,0,0-3-3Z" id="path193798-5"></path> <path class="cls-2" d="M46.65,39.83V11a3,3,0,0,0-3-3H40.4a3,3,0,0,1,3,3V39.83Z" id="path210887"></path> <path class="cls-3" d="M44.79,32.78a1.86,1.86,0,0,1,1.87,1.86V38a1.87,1.87,0,0,1-3.73,0V34.64A1.86,1.86,0,0,1,44.79,32.78Z" id="path195250-2"></path> <path class="cls-4" d="M41.07,32.78a1.86,1.86,0,0,1,1.86,1.86V38a1.86,1.86,0,0,1-3.72,0V34.64A1.86,1.86,0,0,1,41.07,32.78Z" id="path195252-5"></path> <path class="cls-4" d="M22.93,32.78a1.86,1.86,0,0,1,1.86,1.86V38a1.86,1.86,0,0,1-3.72,0V34.64A1.86,1.86,0,0,1,22.93,32.78Z" id="path218498-8"></path> <path class="cls-3" d="M19.21,32.78a1.86,1.86,0,0,1,1.86,1.86V38a1.86,1.86,0,0,1-3.72,0V34.64A1.86,1.86,0,0,1,19.21,32.78Z" id="path218500-6"></path> <path class="cls-4" d="M41.07,21.38a1.86,1.86,0,0,0-1.86,1.86v3.33a1.86,1.86,0,0,0,3.72,0V23.24A1.86,1.86,0,0,0,41.07,21.38Z" id="path218502-8"></path> <path class="cls-3" d="M44.79,21.38a1.86,1.86,0,0,0-1.86,1.86v3.33a1.87,1.87,0,0,0,3.73,0V23.24A1.86,1.86,0,0,0,44.79,21.38Z" id="path218504-8"></path> <path class="cls-4" d="M34.94,23.69a1.85,1.85,0,0,0-2.63,0L30,26a1.86,1.86,0,0,0,2.63,2.64l2.35-2.36A1.85,1.85,0,0,0,34.94,23.69Z" id="path218719-4"></path> <path class="cls-3" d="M37.35,21.38a1.86,1.86,0,0,0-1.86,1.86v3.33a1.86,1.86,0,0,0,3.72,0V23.24A1.86,1.86,0,0,0,37.35,21.38Z" id="path218721-3"></path> <path class="cls-3" d="M35,10.77a1.86,1.86,0,0,1,1.86,1.86V16a1.86,1.86,0,0,1-3.72,0V12.63A1.86,1.86,0,0,1,35,10.77Z" id="path219330-1"></path> <path class="cls-3" d="M41.12,13.08a1.85,1.85,0,0,1,2.63,0l2.36,2.35a1.86,1.86,0,1,1-2.63,2.63l-2.36-2.35A1.85,1.85,0,0,1,41.12,13.08Z" id="path219332-4"></path> <path class="cls-4" d="M38.71,10.77a1.86,1.86,0,0,1,1.87,1.86V16a1.87,1.87,0,0,1-3.73,0V12.63A1.86,1.86,0,0,1,38.71,10.77Z" id="path219334-9"></path> <path class="cls-5" d="M21.94,50.62,21.28,54a2.12,2.12,0,0,1-2,2,2,2,0,0,1-2-2V50.62l2.29-1.7Z" id="path191561-6"></path> <path class="cls-5" d="M42.06,50.62,42.72,54a2.13,2.13,0,0,0,2,2,2,2,0,0,0,2-2V50.62l-2.3-1.7Z" id="path192513-6"></path> <path class="cls-6" d="M17.34,39.83V50.62H46.65V39.83Z" id="path189567"></path> <path class="cls-7" d="M43.4,39.83V50.62h3.25V39.83Z" id="path210889"></path> <path class="cls-8" d="M22.27,54.22l.5-2.6H41.23l.51,2.6A3.08,3.08,0,0,0,44.69,57a3,3,0,0,0,3-3V11a4,4,0,0,0-4-4H20.35a4,4,0,0,0-4,4V54a3,3,0,0,0,3,3A3.1,3.1,0,0,0,22.27,54.22Zm19-37,.36.36H41A2.12,2.12,0,0,0,41.25,17.25ZM33,49.62V40.83H45.66v8.79ZM40.21,38V34.64a.86.86,0,0,1,1.72,0V38a.86.86,0,0,1-1.72,0Zm5.45,0a.86.86,0,0,1-.87.86.85.85,0,0,1-.86-.86V34.64a.85.85,0,0,1,.86-.86.87.87,0,0,1,.87.86ZM30.41,27.36a.88.88,0,0,1,.25-.61L33,24.4a.86.86,0,0,1,1.22,1.21L31.88,28a.86.86,0,0,1-1.47-.61Zm4.4.51a4.05,4.05,0,0,0,.21.35h-.56Zm10.85-1.3a.87.87,0,0,1-1.73,0V23.24a.87.87,0,0,1,1.73,0Zm-3.73,0a.86.86,0,0,1-1.72,0V23.24a.86.86,0,0,1,1.72,0Zm-3.72,0a.86.86,0,0,1-1.72,0V23.24a.87.87,0,0,1,.86-.86.85.85,0,0,1,.86.86Zm7.19-9.21a.89.89,0,0,1-1.22,0L41.83,15a.83.83,0,0,1-.25-.6h0a.82.82,0,0,1,.25-.6h0a.83.83,0,0,1,.61-.26.85.85,0,0,1,.61.26l2.35,2.35a.83.83,0,0,1,.26.61A.85.85,0,0,1,45.4,17.36ZM39.58,16a.87.87,0,0,1-1.73,0V12.63a.87.87,0,0,1,1.73,0Zm-3.73,0a.86.86,0,0,1-1.72,0V12.63a.86.86,0,1,1,1.72,0Zm9.81,3.65v.92a2.79,2.79,0,0,0-.87-.15,2.83,2.83,0,0,0-1.86.71,2.79,2.79,0,0,0-3.72,0,2.81,2.81,0,0,0-1.86-.71,2.86,2.86,0,0,0-2.7,2,2.88,2.88,0,0,0-3,.64l-2.35,2.36a2.85,2.85,0,0,0-.84,2,2.72,2.72,0,0,0,.15.86H18.35V19.61ZM18.35,30.22H45.66v1.71a2.79,2.79,0,0,0-.87-.15,2.83,2.83,0,0,0-1.86.71,2.79,2.79,0,0,0-1.86-.71,2.87,2.87,0,0,0-2.86,2.86V38a2.68,2.68,0,0,0,.15.86H25.64a2.68,2.68,0,0,0,.15-.86V34.64a2.87,2.87,0,0,0-2.86-2.86,2.79,2.79,0,0,0-1.86.71,2.81,2.81,0,0,0-1.86-.71,2.68,2.68,0,0,0-.86.15Zm0,7.75V34.64a.86.86,0,0,1,1.72,0V38a.86.86,0,0,1-1.72,0Zm3.72,0V34.64a.86.86,0,0,1,1.72,0V38a.86.86,0,0,1-1.72,0Zm-3.72,2.86H31v8.79H18.35ZM44.69,55c-.71,0-.94-.89-1-1.16l-.43-2.22h2.39V54A1,1,0,0,1,44.69,55ZM20.35,9h23.3a2,2,0,0,1,2,2v2.56l-1.2-1.2a2.94,2.94,0,0,0-3-.63,2.84,2.84,0,0,0-4.57-1.27,2.85,2.85,0,0,0-4.72,2.16V16a2.85,2.85,0,0,0,.53,1.65H18.35V11A2,2,0,0,1,20.35,9Zm-2,45V51.62h2.38l-.43,2.22c-.05.27-.28,1.16-1,1.16A1,1,0,0,1,18.35,54Z"></path> <path class="cls-8" d="M26,44.41H23.32a1,1,0,1,0,0,2H26a1,1,0,0,0,0-2Z"></path> <path class="cls-8" d="M40.68,44.41H38a1,1,0,0,0,0,2h2.71a1,1,0,1,0,0-2Z"></path> </g> </g></svg>