<svg version="1.1" id="Layer_1" xmlns="http://www.w3.org/2000/svg" xmlns:xlink="http://www.w3.org/1999/xlink" x="0px" y="0px"
	 viewBox="0 0 512 512" style="enable-background:new 0 0 512 512;" xml:space="preserve">
<path style="fill:#C5824B;" d="M499.074,443.176c-19.523-48.115-65.512-82.664-119.904-85.591
	c-22.48-45.281-69.185-76.41-123.169-76.41s-100.689,31.128-123.169,76.41c-54.392,2.927-100.382,37.476-119.904,85.591
	c-10.02,24.695,8.512,51.642,35.163,51.642h415.819C490.562,494.818,509.094,467.871,499.074,443.176z"/>
<g>
	<path style="fill:#ADDE52;" d="M256,204.971h-50.69c-75.718,0-137.099-61.382-137.099-137.099V17.184h50.69
		C194.618,17.184,256,78.565,256,154.283V204.971L256,204.971z"/>
	<path style="fill:#ADDE52;" d="M256,204.971h50.69c75.718,0,137.099-61.382,137.099-137.099V17.184H393.1
		C317.382,17.184,256,78.565,256,154.283L256,204.971L256,204.971z"/>
</g>
<g>
	<path style="fill:#5E282D;" d="M508.526,439.341c-20.682-50.971-68.521-86.371-122.939-91.507
		c-12.028-21.987-29.469-40.593-50.731-54.053c-20.697-13.103-44.248-20.776-68.654-22.452v-56.157h40.489
		c81.222,0,147.299-66.078,147.299-147.299V17.183c0-5.634-4.567-10.201-10.201-10.201h-50.689
		c-62.218,0-115.549,38.775-137.099,93.429c-21.552-54.654-74.882-93.429-137.1-93.429H68.212c-5.634,0-10.201,4.567-10.201,10.201
		v50.69c0,81.222,66.078,147.299,147.299,147.299H245.8v56.157c-24.406,1.676-47.956,9.35-68.654,22.452
		c-21.262,13.46-38.704,32.065-50.731,54.053C71.996,352.97,24.157,388.37,3.475,439.341c-5.939,14.636-4.19,31.235,4.676,44.401
		c8.971,13.323,23.903,21.276,39.938,21.276h415.822c16.036,0,30.967-7.953,39.938-21.276
		C512.716,470.575,514.465,453.977,508.526,439.341z M393.1,27.383h40.488v40.489c0,69.972-56.926,126.898-126.898,126.898h-26.062
		l111.18-111.18c3.983-3.983,3.983-10.442,0-14.427c-3.983-3.983-10.442-3.982-14.427,0l-111.18,111.182v-26.062
		C266.201,84.31,323.127,27.383,393.1,27.383z M78.413,67.872V27.383h40.488c69.973,0,126.899,56.926,126.899,126.899v26.062
		L134.619,69.163c-3.983-3.983-10.441-3.982-14.427,0c-3.983,3.983-3.983,10.442,0,14.427l111.18,111.181H205.31
		C135.339,194.771,78.413,137.845,78.413,67.872z M378.621,367.771c48.967,2.634,92.537,33.738,111,79.24
		c3.432,8.46,2.451,17.695-2.694,25.335c-5.252,7.798-13.641,12.271-23.017,12.271H48.09c-9.375,0-17.765-4.473-23.017-12.271
		c-5.144-7.64-6.126-16.875-2.694-25.335c18.463-45.502,62.033-76.606,111-79.24c3.672-0.198,6.954-2.356,8.589-5.65
		c21.664-43.637,65.359-70.745,114.033-70.745c42.986,0,82.077,21.153,105.551,56.151c-10.578,0.718-21.02,2.555-31.154,5.5
		c-5.41,1.572-8.522,7.232-6.949,12.642c1.296,4.46,5.369,7.357,9.79,7.357c0.941,0,1.901-0.132,2.851-0.408
		c11.503-3.343,23.473-5.038,35.577-5.038L378.621,367.771z"/>
	<path style="fill:#5E282D;" d="M291.885,370.572c-1.681,1.082-3.366,2.215-5.007,3.368c-4.61,3.239-5.72,9.602-2.482,14.21
		c1.986,2.827,5.145,4.337,8.355,4.337c2.026,0,4.072-0.602,5.856-1.855c1.414-0.995,2.866-1.971,4.315-2.903
		c4.738-3.048,6.108-9.359,3.06-14.097C302.935,368.894,296.623,367.525,291.885,370.572z"/>
</g>
</svg>
